<svg width="512" height="512" viewBox="0 0 512 512" fill="none" xmlns="http://www.w3.org/2000/svg">
<path d="M156.633 159.135C151.083 153.321 153.597 147 157.293 143.94C237.893 77.2136 324.109 119.165 333.358 129.736C340.757 138.192 334.679 141.949 329.724 144.922C314.055 154.323 290.614 163.201 248.464 168.384C206.856 173.5 163.57 166.402 156.633 159.135Z" fill="#EF8521"/>
<path d="M128.885 179.285C112.873 191.658 123.27 210.005 132.189 216.612C171.167 243.699 248.794 240.395 261.677 238.413C274.56 236.431 278.524 235.771 280.175 223.549C281.496 213.771 289.975 207.363 294.049 205.381C301.757 202.188 319.444 196.073 339.304 201.747C360.114 207.693 359.385 221.18 357.472 228.834C355.82 235.44 347.232 247.002 330.385 255.921C315.084 264.021 301.536 262.087 296.361 259.554C285.13 253.608 287.773 247.117 271.587 250.636C255.951 253.388 216.554 257.903 184.05 253.939C143.42 248.984 139.786 247.451 126.903 251.296C104.771 257.903 105.432 276.401 112.039 298.203C117.324 315.644 127.894 334.759 132.519 342.136C147.053 365.259 175.572 372.416 189.005 373.187C323.118 378.472 371.149 333.985 388.853 314.719C404.03 298.203 407.351 271.446 403.387 266.822C399.423 262.197 395.129 264.509 391.826 266.822C389.183 268.671 378.833 275.181 373.988 278.704C345.184 298.524 304.509 311.526 287.773 315.049C279.052 316.371 275.402 322.317 272.578 325.289C253.839 345.014 249.823 345.109 222.109 345.76L221.707 345.77C199.245 346.298 177.443 344.366 168.525 342.136C165.882 341.476 162.248 339.494 168.525 338.172C174.885 336.833 210.253 333.878 228.644 333.878C238.884 333.878 239.215 328.49 234.26 326.941C231.089 325.95 221.707 326.17 215.431 326.28H179.425C179.095 326.28 163.9 325.95 163.9 323.638C163.9 321.326 168.525 320.335 180.416 319.344C187.865 318.723 215.211 317.141 227.983 316.701C230.296 316.591 235.911 316.04 235.911 313.398C235.911 310.891 231.397 310.645 228.644 310.755H177.113C172.158 310.425 162.579 309.103 163.9 306.461C165.221 303.818 185.591 303.158 195.611 303.158C218.866 302.629 232.278 301.506 234.92 299.854C236.572 299.194 237.167 294.437 227.653 293.908C215.761 293.248 180.086 294.239 171.167 293.908C164.032 293.644 163.349 291.596 163.9 290.605C173.149 283.008 225.011 282.677 240.206 282.677C252.362 282.677 259.585 287.962 261.677 290.605C270.133 299.061 278.242 300.911 283.478 299.524C328.856 287.5 348.856 276 376.631 254.93C397.363 239.202 401.638 231.807 400.414 221.897C399.313 212.978 393.61 190.846 379.604 173.669C365.598 156.492 340.955 159.685 330.385 163.429L293.058 175.651C189.665 205.381 150.687 162.438 128.885 179.285Z" fill="#EF8521"/>
<path d="M187.684 387.061C187.313 390.763 193.543 393.695 195.856 394.5C299.248 430.506 356.811 369.223 363.087 359.643C369.364 350.064 361.356 353.5 358.793 354.358C355.992 355.296 336.001 363.607 326.421 367.902C279.856 384 254.356 384 228.974 384.748C208.173 385.362 188.014 383.757 187.684 387.061Z" fill="#EF8521"/>
</svg>
